<svg xmlns="http://www.w3.org/2000/svg" width="16" height="16" viewBox="0 0 16 16">
    <g fill="none" fill-rule="evenodd">
        <path d="M0 0H16V16H0z"/>
        <g fill-rule="nonzero">
            <path fill="#FFF" stroke="#463C32" d="M7 14c.966 0 1.875-.182 2.728-.547.852-.364 1.595-.863 2.228-1.497.634-.633 1.133-1.376 1.497-2.228C13.818 8.875 14 7.966 14 7c0-.966-.182-1.875-.547-2.728-.364-.852-.863-1.595-1.497-2.228C11.323 1.41 10.58.91 9.728.547 8.875.182 7.966 0 7 0c-.966 0-1.875.182-2.728.547-.852.364-1.595.863-2.228 1.497C1.41 2.677.91 3.42.547 4.272.182 5.125 0 6.034 0 7c0 .966.182 1.875.547 2.728.364.852.863 1.595 1.497 2.228.633.634 1.376 1.133 2.228 1.497C5.125 13.818 6.034 14 7 14z" transform="translate(1 1)"/>
            <path fill="#463C32" d="M4.813 6.563c.236 0 .44-.087.608-.26.169-.173.253-.379.253-.615 0-.237-.084-.443-.253-.616-.169-.173-.372-.26-.609-.26-.246 0-.453.087-.622.26-.168.173-.253.379-.253.615 0 .237.085.443.253.616.169.173.376.26.622.26zM9.188 6.563c.236 0 .44-.087.608-.26.169-.173.253-.379.253-.615 0-.237-.084-.443-.253-.616-.169-.173-.372-.26-.608-.26-.247 0-.454.087-.623.26-.168.173-.252.379-.252.615 0 .237.084.443.252.616.169.173.376.26.623.26zM6.918 11.402c.01 0 .018-.002.027-.006.01-.005.019-.007.028-.007.701 0 1.298-.128 1.79-.383.493-.255.896-.536 1.21-.841.315-.305.545-.59.691-.854.146-.265.223-.41.232-.438.055-.11.06-.219.014-.328-.045-.11-.123-.191-.232-.246-.11-.046-.221-.048-.335-.007-.114.041-.194.116-.24.226 0 .009-.059.116-.177.32-.119.206-.303.432-.554.678-.25.246-.574.474-.97.683-.397.21-.873.315-1.43.315-.008 0-.018.002-.027.007l-.013.006c-.529 0-.982-.102-1.36-.307-.379-.205-.691-.429-.937-.67-.246-.242-.43-.47-.554-.684-.123-.214-.19-.33-.198-.348-.055-.11-.137-.185-.246-.226-.11-.041-.219-.039-.328.007-.119.055-.199.137-.24.246-.04.11-.034.223.02.342l.026.046.214.384c.15.27.38.556.69.862.31.305.705.585 1.183.84.479.256 1.05.383 1.716.383z" transform="translate(1 1)"/>
        </g>
    </g>
</svg>
